<svg xmlns="http://www.w3.org/2000/svg" xml:space="preserve" width="921.386" height="703.95"><path d="M959.112 224.23c-35.808.015-52.425 2.056-82.494 10.129-25.942 6.909-39.813 14.022-70.172 28.133-4.018 2.28-7.962 5.997-12.377 8.254-6.927 4.584-14.086 8.836-20.766 13.773-4.976 3.677-5.323 3.88-14.346 11.777-6.28 5.418-11.896 10.419-17.591 15.899-5.997 5.772-13.892 13.955-17.442 17.87-6.266 6.892-12.003 12.381-21.248 27.788-11.132 15.357-24.783 40.522-32.19 59.332-2.02 5.133-4.28 10.083-5.02 11-.74.917-1.005 1.668-.585 1.668.418 0-.117 2.105-1.191 4.678-3.147 7.532-10.027 36.06-12.697 52.654-4.945 30.739-4.61 73.425.804 101.965 3.668 19.336 11.401 48.064 14.115 52.44 2.083 5.482 4.437 11.86 7.178 18.523 1.318 3.525 2.924 7.08 3.567 7.904 1.604 3.228 3.733 7.555 6.476 12.928 2.555 5.265 4.946 9.874 5.313 10.24.366.368 4.8 6.937 9.851 14.6 13.446 20.397 25.494 34.874 43.95 52.804 28.492 27.54 61.973 51.317 102.199 66.63 4.033 1.275 8.04 2.88 8.906 3.564.866.683 8.367 3.065 16.668 5.295 8.3 2.228 15.798 4.626 16.66 5.328.863.702 2.362 1.129 3.332.951.971-.179 5.067.358 9.1 1.193 4.034.836 13.034 2.15 20 2.918 5.779.635 11.557 1.284 17.334 1.944 9.006 1.054 54.13-.584 66.709-2.422 18.8-2.747 48.79-10.22 59.29-14.774 2.2-.954 5.502-2.167 7.335-2.697 12.657-3.658 44.838-20.304 60.996-31.55 8.102-5.17 16.303-10.77 23.67-17.43 31.414-24.471 63.583-64.314 82.644-102.354 10.993-21.938 21.584-51.877 26.846-75.889 5.74-26.2 7.638-78.305 3.789-104.045-1.914-13.952-3.485-30.262-9.184-44.732-9.57-34.277-25.31-66.724-47.03-96.955-6.905-9.865-19.078-27.387-35.991-41.475-28.19-27.122-61.287-51.633-99.272-65.521-6.858-2.612-14.268-5.61-16.468-6.664-5.823-2.79-34.828-9.85-53.334-12.98-12.967-2.194-21.942-2.705-47.334-2.694zm4.681 26.918c11.858.06 23.269.744 33.584 2.086 17.833 2.32 58.37 12.907 62 16.193 1.32 1.195 2.4 1.823 2.4 1.393 0-1.094 14.62 4.967 26.6 11.031 37.533 19.632 76.952 52.011 102.793 89.334 27.665 39.958 42.71 88.744 50.793 136.668 3.807 22.576.666 58.336-1.486 68.666a718.688 718.688 0 0 0-2.63 13.479c-5.774 29.91-17.832 54.345-29.63 81.652-17.244 30.194-42.466 59.564-72.437 86.264-15.553 12.296-47.974 27.062-74.36 42.51-4.569 1.6-10.408 3.765-12.974 4.81-2.567 1.044-10.066 3.136-16.666 4.648-6.6 1.512-13.8 3.305-16 3.983-2.2.678-6.226 1.503-8.946 1.836-2.72.332-6.2 1.002-7.732 1.488-4.576 1.452-47.682 2.73-61.322 1.816-11.463-.767-44.524-5.827-46.647-7.14-.477-.294-5.543-1.789-11.256-3.32-24.248-6.789-45.491-20.976-65.85-28.243-1.236-.997-4.348-2.96-6.915-4.363-5.64-3.081-29.255-20.639-36.666-27.26-22.613-20.407-39.938-46.423-64.678-83.494-4.88-9.454-13.129-28.619-14.059-32.666-.085-.366-.903-2.466-1.818-4.666-1.881-4.522-9.238-32.199-10.025-37.719-.284-1.988-1.206-6.615-2.05-10.28-.843-3.668-1.866-20.468-2.269-37.335-.8-33.513.38-46 6.965-73.65 5.61-23.555 15.734-51.708 18.074-50.262.64.395.823-.167.409-1.248-.686-1.785 1.347-7.198 3.318-8.84.44-.366 2.51-4.266 4.601-8.666 7.36-15.064 15.437-26.423 24.5-38.715 1.895-2.57 4.1-4.719 6.217-7.285 2.117-2.567 7.783-9.017 12.592-14.334 24.216-26.617 72.077-52.92 112.385-71.566 12.403-5.737 25.687-9.868 39.17-12.096 19.247-3.18 40.252-4.81 60.015-4.709zM1247.389 317.158c-48.07-9.917-77.58-56.185-101.61-90.543 21.915 4.522 58.734 23.793 74.953 38.19 2.285 2.286 2.376 2.26 2.283-.62-.054-1.65-.553-6.206-1.11-10.126-1.25-8.791.42-9.923 6.4-4.337 15.35 14.236 40.37 47.514 34.373 68.671-.983 2.563-.062 2.637-15.289-1.235zm-590.367-3.722c1.517-11.687 4.788-22.586 8.991-29.964 3.13-5.76 6.37-10.904 10.462-17.528 7.235-9.116 18.677-20.091 20.944-20.091 1.656 0 1.517 4.796-.416 14.333-.79 3.9.86 3.796 5.317-.333 1.978-1.834 3.968-3.334 4.423-3.334.454 0 1.8-.881 2.99-1.959 1.191-1.077 7.082-4.883 13.092-8.458 9.487-5.12 19.277-10.746 36.391-16.284 4.532-1.527 9.812-2.594 11.735-2.37l3.495.405-3.113 2.666c-13.385 12.221-19.787 24.823-27.401 34.356-3.018 3.817-9.237 10.897-13.822 15.734-11.991 15.672-25.348 29.243-58.331 36.522l-13.161 2.71c-2.27.466-2.413-.111-1.596-6.405z" style="fill:#78f;stroke-width:1.33333" transform="translate(-499.307 -224.23)"/><path d="M1297.779 390.075c-16.467-6.53-34.05-22.23-45.973-41.052-6.617-10.446-7.018-13-1.469-9.364 9.392 3.714 18.988 8.86 29.19 8.86-1.53-19.055-.112-39.361-5.246-57.666 15.358 6.26 32.855 43.477 36.096 65.082 1.658 14.745 1.822 19.294.983 27.25-.844 7.999-1.172 8.69-4.248 8.968-1.833.166-6.033-.77-9.333-2.078zm-688.166.801c-.953-1.78-1.23-9.031-.797-20.876.56-15.313 1.275-20.024 4.579-30.16 4.99-15.314 13.103-30.883 22.032-42.282 7.286-9.302 12.866-12.32 10.3-5.568-4.573 12.027-7.236 56.53-3.383 56.53 6.884-1.8 19.258-3.817 24.876-7.87 3.622-2.678 6.559-3.608 6.559-2.078 0 .396-1.2 3.072-2.667 5.947-1.985 5.098-4.716 7.551-9.779 14.328-2.576 3.486-7.144 8.726-10.152 11.643-3.708 3.35-7.744 6.56-13.441 10.909-7.883 5.394-13.64 8.284-20.784 10.434-5.515 1.66-5.975 1.6-7.343-.957z" style="fill:#78f;stroke-width:1.33333" transform="translate(-499.307 -224.23)"/><path d="M1288.99 416.203c-1.296-2.741-1.971-5.368-1.501-5.838.47-.47 3.485.382 6.7 1.894 5.496 2.583 20.2 6.927 28.786-3.478 8.586-10.404 10.946-31.655 7.611-52.928-1.15-7.334-2.474-14.693-2.943-16.354-2.482-8.793 8.295 5.076 15.817 20.354 10.538 23.703 12.697 47.632 5.76 68.666-4.419 13.276-12.456 29.37-14.606 29.25-19.408-2.928-38.096-26.161-45.624-41.566zm-709.012 34.179c-5.802-9.276-12.45-30.142-13.55-42.53-1.377-15.491 2.765-34.08 11.475-51.506 2.834-5.558 4.565-7.998 7.416-12.364 2.095-4.393 5.345-7.022 6.837-5.53.364.364-.424 4.428-1.75 9.031-1.82 6.317-2.406 12.947-2.389 27.036.024 19.325 1.383 26.161 7.911 39.778 2.195 4.578 2.871 5.042 6.484 4.456 9.806-1.593 13.846-2.692 21.093-5.737 4.25-1.786 8.262-2.916 8.917-2.511 1.173.724-7.768 17.88-11.603 22.264-6.733 7.255-20.646 21.11-32.605 24.159-3.238.84-3.99.242-8.237-6.546z" style="fill:#78f;stroke-width:1.33333" transform="translate(-499.307 -224.23)"/><path d="M555.369 507.331c-7.883-9.943-14.187-21.879-17.357-32.811-4.846-19.503-6.605-70.09 5.07-76.651 2.138-1.144 2.492-1.035 1.873.58 7.975 27.983 10.593 66.13 36.064 84.131 3.093 2.028 3.712 1.91 12.171-2.296 8.391-3.535 15.73-10.885 23.049-14.764 1.582-.414 2.546-.217 2.142.438-.405.654-1.257 4.39-1.893 8.303-1.833 11.26-8.805 27.578-15.316 35.847-5.305 6.736-19.949 18.411-23.093 18.411-10.346-6.295-16.208-13.146-22.71-21.188zm781.004 18.23c-6.005-2.932-10.341-6.255-13.855-10.617-9.198-8.277-5.234-3.49-9.935-13.758-7.434-16.103-12.621-35.333-9.531-35.333 9.172 3.821 23.627 17.749 32.89 18.649 21.346-17.477 37.562-54.855 39.17-82.061 0-7.813 3.149-5.172 6.331 5.31 12.657 33.27-12.674 131.115-45.07 117.811z" style="fill:#78f;stroke-width:1.33333" transform="translate(-499.307 -224.23)"/><path d="M1331.553 607.921c-13.47-11.53-22.721-33.739-23.389-56.15l-.385-12.94c11.775-.341 13.067 11.476 19.333 18.098 10.261 10.839 11.132 11.186 17.49 6.978 23.8-17.677 45.066-46.605 56.431-71.721 2.842-6.417 5.636-11.667 6.208-11.667 1.926 0 2.9 12.247 2.161 27.178-2.26 44.428-32.357 80.411-67.42 102.638-3.355 3.037-4.322 2.813-10.429-2.414zm-754.358 3.13c.307-.496-3.475-3.519-8.404-6.717-4.929-3.198-14.073-10.895-20.32-17.103-20.112-16.767-31.838-42.515-36.757-66.712-2-10.34-2.56-28.542-1.102-35.833 1.03-5.148 4.15-5.442 5.312-.5 1.6 6.804 12.246 27.589 20.077 39.198 11.281 15.74 27.762 41.252 44.199 43.802 14.283-4.428 17.303-27.612 30.607-28 1.724 0 1.915 1.698 1.249 11.136-1.43 20.262-6.813 36.591-16.329 49.53-2.479 3.533-4.634 5.506-7.485 8.341-3.128 2.949-5.726 4.247-8.104 4.05-1.925-.16-3.25-.695-2.943-1.192z" style="fill:#78f;stroke-width:1.33333" transform="translate(-499.307 -224.23)"/><path d="M1312.854 683.519c-2.05-2.75-4.063-5.3-4.473-5.666-2.038-1.821-6.68-12.73-9.417-22.133-2.384-8.193-3.08-13.942-3.125-25.867-.075-19.23 1.08-25.448 3.189-24.988 2.108.46 2.314 1.562 5.585 8.041 7.285 14.43 21.184 30.314 26.443 30.219 41.157-15.013 65.8-49.07 86.823-81.435 2.607-4.218 3.405 1.632 2.384 17.477-4.47 57.273-42.314 89.194-95.103 107.267-8.182 2.778-8.036 2.813-12.306-2.915zm-717.075 4.016c-2.2-.322-4.6-1.075-5.333-1.674-.734-.6-4.634-2.048-8.667-3.219-16.657-4.836-35.849-16.736-50.733-31.456-20.364-20.14-30.287-43.93-31.561-75.667-.698-17.388.542-18.957 5.795-7.333 14.733 32.603 46.978 62.822 78.668 73.725l6.847 2.355 6.044-6.206c8.042-6.307 20.106-37.132 25.107-32.475 1.399 1.323 1.833 6.533 1.833 22 0 18.865-.262 21.006-3.783 30.934-4.696 13.246-14.852 30.08-17.979 29.8-1.23-.11-4.038-.463-6.238-.784z" style="fill:#78f;stroke-width:1.33333" transform="translate(-499.307 -224.23)"/><path d="M1274.699 752.852c-.553-.969-4.015-10.988-4.262-12.333-.067-.366-.527-1.866-1.022-3.333-2.276-6.745-3.403-26.335-2.23-38.737 1.293-13.66 6.281-31.546 8.594-30.811.733.233 2.882 5.176 4.774 10.986 3.652 11.21 12.064 29.006 15.548 32.895 2.362 2.636 10.079 2.975 21.011.924 3.667-.688 9.058-1.595 11.98-2.017 2.922-.421 5.922-1.25 6.666-1.84.745-.59 2.854-1.524 4.687-2.074 13.728-6.637 26.846-10.957 37.874-18.371 10.053-6.813 11.712-8.137 20.922-16.702 4.904-4.56 7.948-6.54 8.552-5.563.859 1.39-11.633 29.046-13.832 30.626-.523.376-2.128 2.582-3.567 4.902-1.438 2.32-5.915 7.98-9.949 12.578-6.308 7.395-11.57 11.426-20.813 18.033-17.236 9.781-56.006 24.72-84.933 20.838zm-665.587-.99c-9.123-1.71-36.677-10.757-38-12.476-19.375-10.473-36.875-31.465-46.409-45.184-2.222-3.492-5.088-8.574-6.369-11.292-3.201-4.781-9.72-14.74-7.889-16.581 2.031-2.03 2.643-1.752 8.429 3.845 25.529 20.298 53.34 38.018 84.273 42.303 17.977 2.333 17.873 2.36 23.667-6.291 5.977-8.925 9.765-17.553 13.028-29.667 1.283-4.766 2.83-9.223 3.438-9.902 1.772-1.983 5.266 8.06 8.086 23.236 3.044 16.384 2.5 31.917-1.678 47.95-4.476 17.177-3.208 16.068-18.214 15.93-7.165-.067-17.228-.909-22.361-1.871zM887.364 780.467c-3.633-2.267-3.027-9.056-.966-12.81 1.27-2.314 4.36-4.045 6.983-3.738 4.871.57 11.86 4.916 11.02 9.748-1.048 6.024-11.85 10.037-17.037 6.8zM1022.281 723.81c-3.056-3.195-2.708-10.204.492-13.255 3.275-3.123 10.456-3.134 13.576.144 3.04 3.193 2.678 10.17-.51 13.214-3.269 3.121-10.434 3.163-13.558-.103zM851.718 722.58c-3.289-3.338-3.09-11.289.704-14.039 5.03-3.647 15.03-.565 17.984 4.902 1.428 2.644-.385 6.766-2.785 8.575-4.235 3.193-12.18 4.34-15.903.562zM897.994 693.432c-3.125-5.272 2.063-14.001 7.528-16.775 4.373-2.22 11.018-.499 14.39 3.062 3.628 3.831 6.03 11.768 2.445 15.638-5.537 5.976-20.21 5.083-24.363-1.925zM1092.903 687.38c2.097-5.154 8.185-10.332 13.694-9.548 4.474.637 8.798 6.04 8.515 10.55-.325 5.183-6.033 10.947-11.224 10.804-5.373-.148-12.579-6.91-10.985-11.806zM980.686 673.728c-3.24-3.623-3.004-11.926 1.093-14.542 4.868-3.11 13.573.958 16.224 6.09 1.424 2.757.117 7.152-2.375 9-4.003 2.969-11.62 3.168-14.942-.548zM798.446 667.247c-4.52-1.975-11.207-6.883-9.365-11.459 3.348-8.318 21.773-10.714 26.706-3.226 2.994 4.544-3.565 11.261-8.195 14.121-2.599 1.605-6.347 1.787-9.146.564zM937.554 646.48c-5.55-4.592-6.3-16.326-1.36-21.568 4.17-4.424 14.12-4.405 18.236.068 4.431 4.815 2.964 14.838-1.556 19.57-3.555 3.722-11.354 5.211-15.32 1.93zM1047.514 645.186c-.803-1.467-1.889-6.867-2.412-12-1.175-11.518-3.727-17.292-8.522-19.278-2.024-.838-8.631-2.023-14.684-2.633-6.052-.61-11.675-1.78-12.494-2.6-.82-.819-.92-1.53-.223-1.58 13.067-.927 29.136-5.042 31.656-8.105 3.204-9.184 5.45-12.408 5.638-24.137.457-4.217 1.318-7.667 1.913-7.667s1.473 4.05 1.95 9c1.274 13.194 3.332 21.153 6.122 23.678 1.357 1.228 8.316 3.365 15.466 4.75 7.15 1.384 13.537 3.054 14.193 3.71.701.702-3.38 1.83-9.906 2.74-17.79 2.479-18.29 2.654-20.701 7.233-1.223 2.322-3.193 9.922-4.379 16.889-1.798 10.569-2.397 12.225-3.616 10zM711.556 608.261c-.418-1.803-.398-4.49 1.202-5.422 5.211-3.036 15.086-.304 17.298 5.307 1.908 4.842-2.6 13.139-7.79 13.532-5.706.433-9.418-7.842-10.71-13.417zM868.425 595.519c-.026-4.736-4.91-31.695-6.766-37.343-.785-2.39-2.437-4.884-3.67-5.545-2.954-1.58-31.526-6.778-37.26-6.778-3.547 0-4.386-.486-4.032-2.334.366-1.913 2.483-2.498 11.764-3.25 5.734-.31 30.65-5.649 31.553-8.91 3.563-3.73 3.206-8.133 4.173-12.84.912-4.4 2.427-12.761 3.368-18.58 1.735-10.739 4.89-15.493 4.89-7.369 0 2.35.946 10.65 2.102 18.445 3.497 23.585 3.437 24.825 34.072 28.475 10.1 1.204 15.16 2.232 15.16 3.713-12.353 4.403-32.117.042-44.554 6.868-2.509 2.79-2.498 9.592-4.944 30.265-1.639 13.85-2.709 18.85-4.033 18.85-1.073 0-1.81-1.485-1.823-3.667zM722.23 564.256c-4.827-.937-9.953-7.409-8.451-12.091 2.028-6.323 12.933-9.794 18.78-6.646 3.127 1.683 3.864 7.036 2.563 10.34-1.88 4.772-7.857 9.374-12.892 8.397zM970.352 547.283c-1.518-.642-3.704-2.607-4.858-4.368-3.89-5.937 1.965-14.396 9.965-14.396 6.953 0 11.547 10.516 7.134 16.329-2.123 2.797-8.424 4.05-12.241 2.435zM1066.445 523.606c-6.062-.78-9.66-3.048-11.366-7.167-4.47-10.79 9.735-19.672 18.094-11.314 3.353 3.354 3.194 7.609 1.94 12.06-1.244 2.477-4.939 6.37-8.668 6.421zM1199.779 513.599c-6.86-3.793-7.38-11.898-4.285-16.766 2.59-4.074 12.654-4.543 14.225-2.708 8.109 7.232 5.103 14.827.574 19.486-2.443 2.513-7.702 1.543-10.514-.012zM732.713 511.149c-3.731-1.986-4.6-8.13-3.457-12.2.826-2.938 3.854-5.168 6.719-6.218 2.598-.953 5.966-1.133 8.294.364 3.849 2.475 7.984 7.998 6.239 12.228-2.38 5.77-12.285 8.759-17.795 5.826zM1144.156 499.535c-1.992-1.236-3.967-3.815-4.388-5.733-.34-8.792 2.616-14.142 9.75-13.765 11.156.643 15.62 9.619 8.809 17.713-3.953 4.698-8.542 5.276-14.17 1.785zM921.112 497.221c-2.933-1.807-4.898-3.304-4.366-3.327.532-.023.386-1.57-.325-3.439-.955-2.513-.72-4.68.906-8.333 1.208-2.715 2.09-5.43 1.958-6.035-.131-.605.226-.82.794-.48.568.34 3.857.184 7.31-.348 3.451-.531 5.992-.508 5.647.05-.346.56.488 1.373 1.854 1.806 4.751 1.508 7.13 11.303 4.115 16.938-1.264 2.361-8.604 6.478-11.517 6.46-.573-.005-3.442-1.486-6.376-3.292zM1015.079 490.432c-.715-1.88-1.3-5.399-1.3-7.818 0-2.418-.598-7.63-1.329-11.58-1.936-10.462-4.804-12.45-20.867-14.467-14.78-1.855-15.315-2.033-14.27-4.757.48-1.251 2.6-1.957 5.876-1.957 10.12 0 25.877-4.162 26.967-7.122.313-.85 1.682-8.295 3.042-16.545 1.385-8.403 3.111-15 3.924-15 .806 0 2.514 6.364 3.847 14.333 1.318 7.884 3.238 15.66 4.266 17.281 2.027 3.195 7.581 5.031 19.49 6.443 8.179.97 14.059 3.854 10.387 5.095-1.1.372-7.058 1.316-13.24 2.099-6.181.783-12.602 2.316-14.267 3.407-3.545 2.323-5.344 7.88-7.448 23.009-1.593 11.452-2.877 13.368-5.078 7.58zM1178.096 446.188c-.995-4.136.807-7.13 1.823-10.362 4.851-7.404 14.692-9.017 19.9-3.263 2.675 1.343 2.825-.25 4.137 6.508 1.137 5.684-.302 10.171-4.512 14.075-8.012 5.813-20.692.415-21.348-6.958zM1110.446 449.942c-15.075-6.262-8.57-29.977 7.188-25.625 2.665.735 7.948 3.3 9.86 6.807 1.525 2.8.774 11.221-2.646 14.953-3.359 3.664-11.185 5.202-14.402 3.865zM893.274 382.579c2.82-5.167 12.265-6.076 17.375-3.154 2.365 1.353 2.735 4.949 2.82 7.672.092 2.95-.352 6.495-2.533 8.483-9.05 6.467-23.184-1.388-17.662-13.001zM808.11 392.519c-3.694-1.115-6.571-5.84-6.331-9.69.265-4.249 4.208-8.435 8.26-9.741 1.712-.552 3.815.202 5.238 1.303 3.661 2.833 8.143 7.831 6.626 12.205-1.64 4.727-9.003 7.37-13.793 5.923zM853.843 317.92c-4.654-3.452-5.172-12.245-2.235-17.24 1.588-2.701 5.62-3.826 8.735-3.476 3.3.371 6.432 2.842 8.208 5.649 1.372 2.168 1.705 5.077 1.228 7.598-.384 2.03-1.45 4.165-3.153 5.333-3.563 2.444-9.313 4.71-12.783 2.136zM1057.825 314.257c-9.64-4.035-6.896-19.071 3.482-19.071 5.823 0 9.81 3.738 9.763 9.153-.023 2.666-.838 5.895-1.81 7.176-1.918 2.526-8.297 4.055-11.435 2.742zM991.974 301.25c-4.24-3.93-4.503-8.466-.765-13.218 6.807-8.653 20.806-.704 16.557 9.401-3.164 7.524-10.008 9.178-15.792 3.817z" style="fill:#78f;stroke-width:1.33333" transform="translate(-499.307 -224.23)"/><path d="M650.446 810.308c-31.51-6.062-49.668-13.927-62.716-28.939-6.244-7.139-7.656-10.904-3.607-9.619 11.562 3.67 55.588 6.098 71.362 3.936 5.866-.804 6.196-1.096 9.412-8.333 2.981-6.71 5.509-16.946 8.575-34.73.56-3.243 1.607-6.08 2.329-6.303 1.514-.47 11.376 19.851 15.33 31.587 3.711 11.018 4.74 25.718 2.652 37.922-2.56 14.962-2.105 14.658-22.227 14.874-9.41.1-18.91-.077-21.11-.395zM1230.63 809.18c-1.103-1.103-3.026-6.593-4.274-12.2-3.908-17.568-1.216-33.069 9.804-56.46 2.592-5.5 4.766-10.6 4.832-11.334.066-.733 1.32-1.505 2.787-1.715 2.35-.337 2.7.456 2.952 6.666.732 14.602 5.03 24.308 8.279 33.102 1.445 3.805 3.01 7.299 3.478 7.765 1.815 1.812 57.144.639 67.957-1.44 5.867-1.13 11.134-1.78 11.706-1.446 1.875 1.095-9.87 13.717-18.485 19.865-8.67 6.186-18.97 10.83-30.357 13.687-22.475 5.638-54.627 7.562-58.679 3.51zM851.955 917.69c-5.848-5.77-10.334-10.79-9.968-11.156.365-.366 7.758-.956 16.429-1.312 15.116-.62 28.262-2.366 35.363-4.693l5.874-1.923c2.145-.7 1.755-1.23-2.497-3.398-11.662-5.946-32.678-10.378-72.71-15.334-20.927-2.59-33.816-5.246-47.045-9.693l-10.378-3.488 1.036-6.087c1.27-7.461.797-18.835-.98-23.505-.725-1.91-1-3.989-.61-4.62.39-.631 4.957.66 10.148 2.868 26.288 9.017 51.255 16.954 77.161 23.128 5.142.71 11.059 2.134 14 3.37 1.468.617 6.868 2.174 12 3.46 5.134 1.286 12.602 3.754 16.596 5.484 12.67 5.354 19.152 7.72 26.785 13.093 7.267 5.037 14.62 13.405 14.62 16.64-2.04 3.432-3.938 5.284-7.044 7.23-3.707 3.706-20.08 11.105-30.956 13.987-5.867 1.555-16.635 3.64-23.93 4.633l-13.262 1.806z" style="fill:#78f;stroke-width:1.33333" transform="translate(-499.307 -224.23)"/><path d="M1040.445 925.81c-4.033-.564-9.433-1.338-12-1.721-16.715-2.494-46.666-17.754-46.666-23.777 0-3.043 6.894-10.487 15.205-16.418 4.657-3.323 8.826-6.041 9.264-6.041.439 0 4.562-1.713 9.164-3.806 12.874-5.857 21.774-8.472 55.7-16.365 29.666-8.013 39.612-11.425 67.007-20.521 7.888-3.133 14.665-5.173 15.06-4.533.396.64.022 3.727-.83 6.86-.963 3.538-1.237 9.845-.724 16.639l.827 10.94-10.845 3.427c-16.313 5.153-32.466 8.105-69.828 12.76-12.125 1.512-29.025 5.376-33.277 6.325-5.544 1.932-17.216 4.466-19.887 8.144 1.607 1.38 10.862 4.088 16.497 4.828 6.663.876 34.67 3.233 38.857 3.27 1.939.017 3.882.963 4.319 2.1-3.547 3.964-10.174 9.475-14.361 13.943-5.27 5.834-7.413 6.194-23.482 3.947z" style="fill:#78f;stroke-width:1.33333;fill-opacity:1" transform="translate(-499.307 -224.23)"/><path d="M706.626 859.162c-6.5-.61-16.4-2.125-22-3.366-17.049-3.778-42.688-19.127-42.797-25.621-.042-2.492.353-2.782 2.283-1.68 3.3 1.885 25.572 3.759 39 3.283 11.34-.403 23.114-2.38 26.43-4.44 2.91-1.807 4.308-10.46 4.873-30.152.295-10.267.815-18.667 1.155-18.667 1.12 0 10.929 11.833 17.442 21.043 3.517 4.973 8.25 13.373 10.516 18.666 3.59 8.386 4.19 11.537 4.659 24.484l.537 14.86-5.14.763c-10.538 1.568-25.498 1.902-36.958.827zM1193.632 859.928c-.294-.294-4.731-.667-9.86-.828-5.13-.16-10.077-.881-10.993-1.6-2.092-1.64-2.205-16.237-.21-27.07 2.467-13.384 12.994-32.031 26.458-46.866l6.641-7.317-.768 11.136c-.7 10.16 1.12 32.738 3.044 37.752.435 1.133 4.175 3.086 8.313 4.34 8.582 2.6 42.434 2.982 54.179.611 4.896-.988 6.913-.932 7.624.212.532.855.382 1.756-.332 2.002-9.737 9.475-19.215 14.261-30.441 19.665-5.859 2.923-26.425 6.8-40.981 7.726-6.677.424-12.38.531-12.674.237z" style="fill:#78f;stroke-width:1.33333" transform="translate(-499.307 -224.23)"/></svg>